<svg preserveAspectRatio="none" width="100%" height="100%" overflow="visible" style="display: block;" viewBox="0 0 4908 3497.65" fill="none" xmlns="http://www.w3.org/2000/svg">
<g id="&#235;&#176;&#176;&#234;&#178;&#189;">
<g id="Perspective Grid" opacity="0.1">
<path id="Vector" d="M1195.77 477.514V2371.51" stroke="var(--stroke-0, #B3B3B3)"/>
<path id="Vector_2" d="M1219.75 477.514V2371.51" stroke="var(--stroke-0, #B3B3B3)"/>
<path id="Vector_3" d="M1243.72 477.514V2371.51" stroke="var(--stroke-0, #B3B3B3)"/>
<path id="Vector_4" d="M1267.7 477.514V2371.51" stroke="var(--stroke-0, #B3B3B3)"/>
<path id="Vector_5" d="M1291.67 477.514V2371.51" stroke="var(--stroke-0, #B3B3B3)"/>
<path id="Vector_6" d="M1315.65 477.514V2371.51" stroke="var(--stroke-0, #B3B3B3)"/>
<path id="Vector_7" d="M1339.62 477.514V2371.51" stroke="var(--stroke-0, #B3B3B3)"/>
<path id="Vector_8" d="M1363.6 477.514V2371.51" stroke="var(--stroke-0, #B3B3B3)"/>
<path id="Vector_9" d="M1387.57 477.514V2371.51" stroke="var(--stroke-0, #B3B3B3)"/>
<path id="Vector_10" d="M1411.55 477.514V2371.51" stroke="var(--stroke-0, #B3B3B3)"/>
<path id="Vector_11" d="M1435.52 477.514V2371.51" stroke="var(--stroke-0, #B3B3B3)"/>
<path id="Vector_12" d="M1459.5 477.514V2371.51" stroke="var(--stroke-0, #B3B3B3)"/>
<path id="Vector_13" d="M1483.47 477.514V2371.51" stroke="var(--stroke-0, #B3B3B3)"/>
<path id="Vector_14" d="M1507.45 477.514V2371.51" stroke="var(--stroke-0, #B3B3B3)"/>
<path id="Vector_15" d="M1531.42 477.514V2371.51" stroke="var(--stroke-0, #B3B3B3)"/>
<path id="Vector_16" d="M1555.39 477.514V2371.51" stroke="var(--stroke-0, #B3B3B3)"/>
<path id="Vector_17" d="M1579.37 477.514V2371.51" stroke="var(--stroke-0, #B3B3B3)"/>
<path id="Vector_18" d="M1603.34 477.514V2371.51" stroke="var(--stroke-0, #B3B3B3)"/>
<path id="Vector_19" d="M1627.32 477.514V2371.51" stroke="var(--stroke-0, #B3B3B3)"/>
<path id="Vector_20" d="M1651.29 477.514V2371.51" stroke="var(--stroke-0, #B3B3B3)"/>
<path id="Vector_21" d="M1675.27 477.514V2371.51" stroke="var(--stroke-0, #B3B3B3)"/>
<path id="Vector_22" d="M1699.24 477.514V2371.51" stroke="var(--stroke-0, #B3B3B3)"/>
<path id="Vector_23" d="M1723.22 477.514V2371.51" stroke="var(--stroke-0, #B3B3B3)"/>
<path id="Vector_24" d="M1747.19 477.514V2371.51" stroke="var(--stroke-0, #B3B3B3)"/>
<path id="Vector_25" d="M1771.17 477.514V2371.51" stroke="var(--stroke-0, #B3B3B3)"/>
<path id="Vector_26" d="M1795.14 477.514V2371.51" stroke="var(--stroke-0, #B3B3B3)"/>
<path id="Vector_27" d="M1819.12 477.514V2371.51" stroke="var(--stroke-0, #B3B3B3)"/>
<path id="Vector_28" d="M1843.09 477.514V2371.51" stroke="var(--stroke-0, #B3B3B3)"/>
<path id="Vector_29" d="M1867.07 477.514V2371.51" stroke="var(--stroke-0, #B3B3B3)"/>
<path id="Vector_30" d="M1891.04 477.514V2371.51" stroke="var(--stroke-0, #B3B3B3)"/>
<path id="Vector_31" d="M1915.01 477.514V2371.51" stroke="var(--stroke-0, #B3B3B3)"/>
<path id="Vector_32" d="M1938.99 477.514V2371.51" stroke="var(--stroke-0, #B3B3B3)"/>
<path id="Vector_33" d="M1962.97 477.514V2371.51" stroke="var(--stroke-0, #B3B3B3)"/>
<path id="Vector_34" d="M1986.94 477.514V2371.51" stroke="var(--stroke-0, #B3B3B3)"/>
<path id="Vector_35" d="M2010.91 477.514V2371.51" stroke="var(--stroke-0, #B3B3B3)"/>
<path id="Vector_36" d="M2034.89 477.514V2371.51" stroke="var(--stroke-0, #B3B3B3)"/>
<path id="Vector_37" d="M2058.86 477.514V2371.51" stroke="var(--stroke-0, #B3B3B3)"/>
<path id="Vector_38" d="M2082.84 477.514V2371.51" stroke="var(--stroke-0, #B3B3B3)"/>
<path id="Vector_39" d="M2106.81 477.514V2371.51" stroke="var(--stroke-0, #B3B3B3)"/>
<path id="Vector_40" d="M2130.79 477.514V2371.51" stroke="var(--stroke-0, #B3B3B3)"/>
<path id="Vector_41" d="M2154.76 477.514V2371.51" stroke="var(--stroke-0, #B3B3B3)"/>
<path id="Vector_42" d="M2178.74 477.514V2371.51" stroke="var(--stroke-0, #B3B3B3)"/>
<path id="Vector_43" d="M2202.71 477.514V2371.51" stroke="var(--stroke-0, #B3B3B3)"/>
<path id="Vector_44" d="M2226.68 477.514V2371.51" stroke="var(--stroke-0, #B3B3B3)"/>
<path id="Vector_45" d="M2250.66 477.514V2371.51" stroke="var(--stroke-0, #B3B3B3)"/>
<path id="Vector_46" d="M2274.63 477.514V2371.51" stroke="var(--stroke-0, #B3B3B3)"/>
<path id="Vector_47" d="M2298.61 477.514V2371.51" stroke="var(--stroke-0, #B3B3B3)"/>
<path id="Vector_48" d="M2322.58 477.514V2371.51" stroke="var(--stroke-0, #B3B3B3)"/>
<path id="Vector_49" d="M2346.56 477.514V2371.51" stroke="var(--stroke-0, #B3B3B3)"/>
<path id="Vector_50" d="M2370.53 477.514V2371.51" stroke="var(--stroke-0, #B3B3B3)"/>
<path id="Vector_51" d="M2394.51 477.514V2371.51" stroke="var(--stroke-0, #B3B3B3)"/>
<path id="Vector_52" d="M2418.48 477.514V2371.51" stroke="var(--stroke-0, #B3B3B3)"/>
<path id="Vector_53" d="M2442.46 477.514V2371.51" stroke="var(--stroke-0, #B3B3B3)"/>
<path id="Vector_54" d="M2466.43 477.514V2371.51" stroke="var(--stroke-0, #B3B3B3)"/>
<path id="Vector_55" d="M2490.41 477.514V2371.51" stroke="var(--stroke-0, #B3B3B3)"/>
<path id="Vector_56" d="M2514.38 477.514V2371.51" stroke="var(--stroke-0, #B3B3B3)"/>
<path id="Vector_57" d="M2538.36 477.514V2371.51" stroke="var(--stroke-0, #B3B3B3)"/>
<path id="Vector_58" d="M2562.33 477.514V2371.51" stroke="var(--stroke-0, #B3B3B3)"/>
<path id="Vector_59" d="M2586.31 477.514V2371.51" stroke="var(--stroke-0, #B3B3B3)"/>
<path id="Vector_60" d="M2610.28 477.514V2371.51" stroke="var(--stroke-0, #B3B3B3)"/>
<path id="Vector_61" d="M2634.26 477.514V2371.51" stroke="var(--stroke-0, #B3B3B3)"/>
<path id="Vector_62" d="M2658.23 477.514V2371.51" stroke="var(--stroke-0, #B3B3B3)"/>
<path id="Vector_63" d="M2682.2 477.514V2371.51" stroke="var(--stroke-0, #B3B3B3)"/>
<path id="Vector_64" d="M2706.18 477.514V2371.51" stroke="var(--stroke-0, #B3B3B3)"/>
<path id="Vector_65" d="M2730.15 477.514V2371.51" stroke="var(--stroke-0, #B3B3B3)"/>
<path id="Vector_66" d="M2754.13 477.514V2371.51" stroke="var(--stroke-0, #B3B3B3)"/>
<path id="Vector_67" d="M2778.1 477.514V2371.51" stroke="var(--stroke-0, #B3B3B3)"/>
<path id="Vector_68" d="M2802.08 477.514V2371.51" stroke="var(--stroke-0, #B3B3B3)"/>
<path id="Vector_69" d="M2826.05 477.514V2371.51" stroke="var(--stroke-0, #B3B3B3)"/>
<path id="Vector_70" d="M2850.03 477.514V2371.51" stroke="var(--stroke-0, #B3B3B3)"/>
<path id="Vector_71" d="M2874 477.514V2371.51" stroke="var(--stroke-0, #B3B3B3)"/>
<path id="Vector_72" d="M2897.98 477.514V2371.51" stroke="var(--stroke-0, #B3B3B3)"/>
<path id="Vector_73" d="M2921.95 477.514V2371.51" stroke="var(--stroke-0, #B3B3B3)"/>
<path id="Vector_74" d="M2945.93 477.514V2371.51" stroke="var(--stroke-0, #B3B3B3)"/>
<path id="Vector_75" d="M2969.9 477.514V2371.51" stroke="var(--stroke-0, #B3B3B3)"/>
<path id="Vector_76" d="M2993.87 477.514V2371.51" stroke="var(--stroke-0, #B3B3B3)"/>
<path id="Vector_77" d="M3017.85 477.514V2371.51" stroke="var(--stroke-0, #B3B3B3)"/>
<path id="Vector_78" d="M3041.83 477.514V2371.51" stroke="var(--stroke-0, #B3B3B3)"/>
<path id="Vector_79" d="M3065.8 477.514V2371.51" stroke="var(--stroke-0, #B3B3B3)"/>
<path id="Vector_80" d="M3089.77 477.514V2371.51" stroke="var(--stroke-0, #B3B3B3)"/>
<path id="Vector_81" d="M1195.77 477.514H3089.78" stroke="var(--stroke-0, #B3B3B3)"/>
<path id="Vector_82" d="M1195.77 501.488H3089.77" stroke="var(--stroke-0, #B3B3B3)"/>
<path id="Vector_83" d="M1195.77 525.463H3089.77" stroke="var(--stroke-0, #B3B3B3)"/>
<path id="Vector_84" d="M1195.77 549.438H3089.77" stroke="var(--stroke-0, #B3B3B3)"/>
<path id="Vector_85" d="M1195.77 573.412H3089.77" stroke="var(--stroke-0, #B3B3B3)"/>
<path id="Vector_86" d="M1195.77 597.387H3089.77" stroke="var(--stroke-0, #B3B3B3)"/>
<path id="Vector_87" d="M1195.77 621.362H3089.77" stroke="var(--stroke-0, #B3B3B3)"/>
<path id="Vector_88" d="M1195.77 645.336H3089.77" stroke="var(--stroke-0, #B3B3B3)"/>
<path id="Vector_89" d="M1195.77 669.311H3089.77" stroke="var(--stroke-0, #B3B3B3)"/>
<path id="Vector_90" d="M1195.77 693.286H3089.77" stroke="var(--stroke-0, #B3B3B3)"/>
<path id="Vector_91" d="M1195.77 717.26H3089.77" stroke="var(--stroke-0, #B3B3B3)"/>
<path id="Vector_92" d="M1195.77 741.235H3089.77" stroke="var(--stroke-0, #B3B3B3)"/>
<path id="Vector_93" d="M1195.77 765.21H3089.77" stroke="var(--stroke-0, #B3B3B3)"/>
<path id="Vector_94" d="M1195.77 789.184H3089.77" stroke="var(--stroke-0, #B3B3B3)"/>
<path id="Vector_95" d="M1195.77 813.159H3089.77" stroke="var(--stroke-0, #B3B3B3)"/>
<path id="Vector_96" d="M1195.77 837.134H3089.77" stroke="var(--stroke-0, #B3B3B3)"/>
<path id="Vector_97" d="M1195.77 861.109H3089.77" stroke="var(--stroke-0, #B3B3B3)"/>
<path id="Vector_98" d="M1195.77 885.083H3089.77" stroke="var(--stroke-0, #B3B3B3)"/>
<path id="Vector_99" d="M1195.77 909.058H3089.77" stroke="var(--stroke-0, #B3B3B3)"/>
<path id="Vector_100" d="M1195.77 933.032H3089.77" stroke="var(--stroke-0, #B3B3B3)"/>
<path id="Vector_101" d="M1195.77 957.007H3089.77" stroke="var(--stroke-0, #B3B3B3)"/>
<path id="Vector_102" d="M1195.77 980.982H3089.77" stroke="var(--stroke-0, #B3B3B3)"/>
<path id="Vector_103" d="M1195.77 1004.96H3089.77" stroke="var(--stroke-0, #B3B3B3)"/>
<path id="Vector_104" d="M1195.77 1028.93H3089.77" stroke="var(--stroke-0, #B3B3B3)"/>
<path id="Vector_105" d="M1195.77 1052.91H3089.77" stroke="var(--stroke-0, #B3B3B3)"/>
<path id="Vector_106" d="M1195.77 1076.88H3089.77" stroke="var(--stroke-0, #B3B3B3)"/>
<path id="Vector_107" d="M1195.77 1100.86H3089.77" stroke="var(--stroke-0, #B3B3B3)"/>
<path id="Vector_108" d="M1195.77 1124.83H3089.77" stroke="var(--stroke-0, #B3B3B3)"/>
<path id="Vector_109" d="M1195.77 1148.8H3089.77" stroke="var(--stroke-0, #B3B3B3)"/>
<path id="Vector_110" d="M1195.77 1172.78H3089.77" stroke="var(--stroke-0, #B3B3B3)"/>
<path id="Vector_111" d="M1195.77 1196.75H3089.77" stroke="var(--stroke-0, #B3B3B3)"/>
<path id="Vector_112" d="M1195.77 1220.73H3089.77" stroke="var(--stroke-0, #B3B3B3)"/>
<path id="Vector_113" d="M1195.77 1244.7H3089.77" stroke="var(--stroke-0, #B3B3B3)"/>
<path id="Vector_114" d="M1195.77 1268.68H3089.77" stroke="var(--stroke-0, #B3B3B3)"/>
<path id="Vector_115" d="M1195.77 1292.65H3089.77" stroke="var(--stroke-0, #B3B3B3)"/>
<path id="Vector_116" d="M1195.77 1316.63H3089.77" stroke="var(--stroke-0, #B3B3B3)"/>
<path id="Vector_117" d="M1195.77 1340.6H3089.77" stroke="var(--stroke-0, #B3B3B3)"/>
<path id="Vector_118" d="M1195.77 1364.58H3089.77" stroke="var(--stroke-0, #B3B3B3)"/>
<path id="Vector_119" d="M1195.77 1388.55H3089.77" stroke="var(--stroke-0, #B3B3B3)"/>
<path id="Vector_120" d="M1195.77 1412.53H3089.77" stroke="var(--stroke-0, #B3B3B3)"/>
<path id="Vector_121" d="M1195.77 1436.5H3089.77" stroke="var(--stroke-0, #B3B3B3)"/>
<path id="Vector_122" d="M1195.77 1460.48H3089.77" stroke="var(--stroke-0, #B3B3B3)"/>
<path id="Vector_123" d="M1195.77 1484.45H3089.77" stroke="var(--stroke-0, #B3B3B3)"/>
<path id="Vector_124" d="M1195.77 1508.42H3089.77" stroke="var(--stroke-0, #B3B3B3)"/>
<path id="Vector_125" d="M1195.77 1532.4H3089.77" stroke="var(--stroke-0, #B3B3B3)"/>
<path id="Vector_126" d="M1195.77 1556.37H3089.77" stroke="var(--stroke-0, #B3B3B3)"/>
<path id="Vector_127" d="M1195.77 1580.35H3089.77" stroke="var(--stroke-0, #B3B3B3)"/>
<path id="Vector_128" d="M1195.77 1604.32H3089.77" stroke="var(--stroke-0, #B3B3B3)"/>
<path id="Vector_129" d="M1195.77 1628.3H3089.77" stroke="var(--stroke-0, #B3B3B3)"/>
<path id="Vector_130" d="M1195.77 1652.27H3089.77" stroke="var(--stroke-0, #B3B3B3)"/>
<path id="Vector_131" d="M1195.77 1676.25H3089.77" stroke="var(--stroke-0, #B3B3B3)"/>
<path id="Vector_132" d="M1195.77 1700.22H3089.77" stroke="var(--stroke-0, #B3B3B3)"/>
<path id="Vector_133" d="M1195.77 1724.2H3089.77" stroke="var(--stroke-0, #B3B3B3)"/>
<path id="Vector_134" d="M1195.77 1748.17H3089.77" stroke="var(--stroke-0, #B3B3B3)"/>
<path id="Vector_135" d="M1195.77 1772.15H3089.77" stroke="var(--stroke-0, #B3B3B3)"/>
<path id="Vector_136" d="M1195.77 1796.12H3089.77" stroke="var(--stroke-0, #B3B3B3)"/>
<path id="Vector_137" d="M1195.77 1820.1H3089.77" stroke="var(--stroke-0, #B3B3B3)"/>
<path id="Vector_138" d="M1195.77 1844.07H3089.77" stroke="var(--stroke-0, #B3B3B3)"/>
<path id="Vector_139" d="M1195.77 1868.05H3089.77" stroke="var(--stroke-0, #B3B3B3)"/>
<path id="Vector_140" d="M1195.77 1892.02H3089.77" stroke="var(--stroke-0, #B3B3B3)"/>
<path id="Vector_141" d="M1195.77 1915.99H3089.77" stroke="var(--stroke-0, #B3B3B3)"/>
<path id="Vector_142" d="M1195.77 1939.97H3089.77" stroke="var(--stroke-0, #B3B3B3)"/>
<path id="Vector_143" d="M1195.77 1963.94H3089.77" stroke="var(--stroke-0, #B3B3B3)"/>
<path id="Vector_144" d="M1195.77 1987.92H3089.77" stroke="var(--stroke-0, #B3B3B3)"/>
<path id="Vector_145" d="M1195.77 2011.89H3089.77" stroke="var(--stroke-0, #B3B3B3)"/>
<path id="Vector_146" d="M1195.77 2035.87H3089.77" stroke="var(--stroke-0, #B3B3B3)"/>
<path id="Vector_147" d="M1195.77 2059.84H3089.77" stroke="var(--stroke-0, #B3B3B3)"/>
<path id="Vector_148" d="M1195.77 2083.82H3089.77" stroke="var(--stroke-0, #B3B3B3)"/>
<path id="Vector_149" d="M1195.77 2107.79H3089.77" stroke="var(--stroke-0, #B3B3B3)"/>
<path id="Vector_150" d="M1195.77 2131.77H3089.77" stroke="var(--stroke-0, #B3B3B3)"/>
<path id="Vector_151" d="M1195.77 2155.74H3089.77" stroke="var(--stroke-0, #B3B3B3)"/>
<path id="Vector_152" d="M1195.77 2179.72H3089.77" stroke="var(--stroke-0, #B3B3B3)"/>
<path id="Vector_153" d="M1195.77 2203.69H3089.77" stroke="var(--stroke-0, #B3B3B3)"/>
<path id="Vector_154" d="M1195.77 2227.67H3089.77" stroke="var(--stroke-0, #B3B3B3)"/>
<path id="Vector_155" d="M1195.77 2251.64H3089.77" stroke="var(--stroke-0, #B3B3B3)"/>
<path id="Vector_156" d="M1195.77 2275.61H3089.77" stroke="var(--stroke-0, #B3B3B3)"/>
<path id="Vector_157" d="M1195.77 2299.59H3089.77" stroke="var(--stroke-0, #B3B3B3)"/>
<path id="Vector_158" d="M1195.77 2323.56H3089.77" stroke="var(--stroke-0, #B3B3B3)"/>
<path id="Vector_159" d="M1195.77 2347.54H3089.77" stroke="var(--stroke-0, #B3B3B3)"/>
<path id="Vector_160" d="M1195.77 2371.51H3089.77" stroke="var(--stroke-0, #B3B3B3)"/>
</g>
<g id="Ellipse 2" filter="url(#filter0_f_0_40)">
<ellipse cx="1984.05" cy="1390.6" rx="1048.8" ry="144.279" transform="rotate(-20.4446 1984.05 1390.6)" fill="var(--fill-0, #310CE9)"/>
</g>
<g id="Ellipse 3" filter="url(#filter1_f_0_40)">
<ellipse cx="2923.95" cy="2107.05" rx="1048.8" ry="144.279" transform="rotate(-20.4446 2923.95 2107.05)" fill="var(--fill-0, #FF6F00)"/>
</g>
</g>
<defs>
<filter id="filter0_f_0_40" x="2.67029e-05" y="0" width="3968.1" height="2781.2" filterUnits="userSpaceOnUse" color-interpolation-filters="sRGB">
<feFlood flood-opacity="0" result="BackgroundImageFix"/>
<feBlend mode="normal" in="SourceGraphic" in2="BackgroundImageFix" result="shape"/>
<feGaussianBlur stdDeviation="500" result="effect1_foregroundBlur_0_40"/>
</filter>
<filter id="filter1_f_0_40" x="939.894" y="716.45" width="3968.1" height="2781.2" filterUnits="userSpaceOnUse" color-interpolation-filters="sRGB">
<feFlood flood-opacity="0" result="BackgroundImageFix"/>
<feBlend mode="normal" in="SourceGraphic" in2="BackgroundImageFix" result="shape"/>
<feGaussianBlur stdDeviation="500" result="effect1_foregroundBlur_0_40"/>
</filter>
</defs>
</svg>
