<svg preserveAspectRatio="none" width="100%" height="100%" overflow="visible" style="display: block;" viewBox="0 0 3660.9 2968.5" fill="none" xmlns="http://www.w3.org/2000/svg">
<g id="&#235;&#176;&#176;&#234;&#178;&#189;">
<g id="Perspective Grid" opacity="0.1">
<path id="Vector" d="M1000 0.5V2494.5" stroke="var(--stroke-0, #B3B3B3)"/>
<path id="Vector_2" d="M1031.57 0.5V2494.5" stroke="var(--stroke-0, #B3B3B3)"/>
<path id="Vector_3" d="M1063.14 0.5V2494.5" stroke="var(--stroke-0, #B3B3B3)"/>
<path id="Vector_4" d="M1094.71 0.5V2494.5" stroke="var(--stroke-0, #B3B3B3)"/>
<path id="Vector_5" d="M1126.28 0.5V2494.5" stroke="var(--stroke-0, #B3B3B3)"/>
<path id="Vector_6" d="M1157.85 0.5V2494.5" stroke="var(--stroke-0, #B3B3B3)"/>
<path id="Vector_7" d="M1189.42 0.5V2494.5" stroke="var(--stroke-0, #B3B3B3)"/>
<path id="Vector_8" d="M1220.99 0.5V2494.5" stroke="var(--stroke-0, #B3B3B3)"/>
<path id="Vector_9" d="M1252.56 0.5V2494.5" stroke="var(--stroke-0, #B3B3B3)"/>
<path id="Vector_10" d="M1284.13 0.5V2494.5" stroke="var(--stroke-0, #B3B3B3)"/>
<path id="Vector_11" d="M1315.7 0.5V2494.5" stroke="var(--stroke-0, #B3B3B3)"/>
<path id="Vector_12" d="M1347.27 0.5V2494.5" stroke="var(--stroke-0, #B3B3B3)"/>
<path id="Vector_13" d="M1378.84 0.5V2494.5" stroke="var(--stroke-0, #B3B3B3)"/>
<path id="Vector_14" d="M1410.4 0.5V2494.5" stroke="var(--stroke-0, #B3B3B3)"/>
<path id="Vector_15" d="M1441.97 0.5V2494.5" stroke="var(--stroke-0, #B3B3B3)"/>
<path id="Vector_16" d="M1473.54 0.5V2494.5" stroke="var(--stroke-0, #B3B3B3)"/>
<path id="Vector_17" d="M1505.11 0.5V2494.5" stroke="var(--stroke-0, #B3B3B3)"/>
<path id="Vector_18" d="M1536.68 0.5V2494.5" stroke="var(--stroke-0, #B3B3B3)"/>
<path id="Vector_19" d="M1568.25 0.5V2494.5" stroke="var(--stroke-0, #B3B3B3)"/>
<path id="Vector_20" d="M1599.82 0.5V2494.5" stroke="var(--stroke-0, #B3B3B3)"/>
<path id="Vector_21" d="M1631.39 0.5V2494.5" stroke="var(--stroke-0, #B3B3B3)"/>
<path id="Vector_22" d="M1662.96 0.5V2494.5" stroke="var(--stroke-0, #B3B3B3)"/>
<path id="Vector_23" d="M1694.53 0.5V2494.5" stroke="var(--stroke-0, #B3B3B3)"/>
<path id="Vector_24" d="M1726.1 0.5V2494.5" stroke="var(--stroke-0, #B3B3B3)"/>
<path id="Vector_25" d="M1757.67 0.5V2494.5" stroke="var(--stroke-0, #B3B3B3)"/>
<path id="Vector_26" d="M1789.24 0.5V2494.5" stroke="var(--stroke-0, #B3B3B3)"/>
<path id="Vector_27" d="M1820.81 0.5V2494.5" stroke="var(--stroke-0, #B3B3B3)"/>
<path id="Vector_28" d="M1852.38 0.5V2494.5" stroke="var(--stroke-0, #B3B3B3)"/>
<path id="Vector_29" d="M1883.95 0.5V2494.5" stroke="var(--stroke-0, #B3B3B3)"/>
<path id="Vector_30" d="M1915.52 0.5V2494.5" stroke="var(--stroke-0, #B3B3B3)"/>
<path id="Vector_31" d="M1947.09 0.5V2494.5" stroke="var(--stroke-0, #B3B3B3)"/>
<path id="Vector_32" d="M1978.66 0.5V2494.5" stroke="var(--stroke-0, #B3B3B3)"/>
<path id="Vector_33" d="M2010.23 0.5V2494.5" stroke="var(--stroke-0, #B3B3B3)"/>
<path id="Vector_34" d="M2041.8 0.5V2494.5" stroke="var(--stroke-0, #B3B3B3)"/>
<path id="Vector_35" d="M2073.37 0.5V2494.5" stroke="var(--stroke-0, #B3B3B3)"/>
<path id="Vector_36" d="M2104.94 0.5V2494.5" stroke="var(--stroke-0, #B3B3B3)"/>
<path id="Vector_37" d="M2136.51 0.5V2494.5" stroke="var(--stroke-0, #B3B3B3)"/>
<path id="Vector_38" d="M2168.08 0.5V2494.5" stroke="var(--stroke-0, #B3B3B3)"/>
<path id="Vector_39" d="M2199.65 0.5V2494.5" stroke="var(--stroke-0, #B3B3B3)"/>
<path id="Vector_40" d="M2231.22 0.5V2494.5" stroke="var(--stroke-0, #B3B3B3)"/>
<path id="Vector_41" d="M2262.78 0.5V2494.5" stroke="var(--stroke-0, #B3B3B3)"/>
<path id="Vector_42" d="M2294.35 0.5V2494.5" stroke="var(--stroke-0, #B3B3B3)"/>
<path id="Vector_43" d="M2325.92 0.5V2494.5" stroke="var(--stroke-0, #B3B3B3)"/>
<path id="Vector_44" d="M2357.49 0.5V2494.5" stroke="var(--stroke-0, #B3B3B3)"/>
<path id="Vector_45" d="M2389.06 0.5V2494.5" stroke="var(--stroke-0, #B3B3B3)"/>
<path id="Vector_46" d="M2420.63 0.5V2494.5" stroke="var(--stroke-0, #B3B3B3)"/>
<path id="Vector_47" d="M2452.2 0.5V2494.5" stroke="var(--stroke-0, #B3B3B3)"/>
<path id="Vector_48" d="M2483.77 0.5V2494.5" stroke="var(--stroke-0, #B3B3B3)"/>
<path id="Vector_49" d="M2515.34 0.5V2494.5" stroke="var(--stroke-0, #B3B3B3)"/>
<path id="Vector_50" d="M2546.91 0.5V2494.5" stroke="var(--stroke-0, #B3B3B3)"/>
<path id="Vector_51" d="M2578.48 0.5V2494.5" stroke="var(--stroke-0, #B3B3B3)"/>
<path id="Vector_52" d="M2610.05 0.5V2494.5" stroke="var(--stroke-0, #B3B3B3)"/>
<path id="Vector_53" d="M2641.62 0.5V2494.5" stroke="var(--stroke-0, #B3B3B3)"/>
<path id="Vector_54" d="M2673.19 0.5V2494.5" stroke="var(--stroke-0, #B3B3B3)"/>
<path id="Vector_55" d="M2704.76 0.5V2494.5" stroke="var(--stroke-0, #B3B3B3)"/>
<path id="Vector_56" d="M2736.33 0.5V2494.5" stroke="var(--stroke-0, #B3B3B3)"/>
<path id="Vector_57" d="M2767.9 0.5V2494.5" stroke="var(--stroke-0, #B3B3B3)"/>
<path id="Vector_58" d="M2799.47 0.5V2494.5" stroke="var(--stroke-0, #B3B3B3)"/>
<path id="Vector_59" d="M2831.04 0.5V2494.5" stroke="var(--stroke-0, #B3B3B3)"/>
<path id="Vector_60" d="M2862.61 0.5V2494.5" stroke="var(--stroke-0, #B3B3B3)"/>
<path id="Vector_61" d="M2894.18 0.5V2494.5" stroke="var(--stroke-0, #B3B3B3)"/>
<path id="Vector_62" d="M2925.75 0.5V2494.5" stroke="var(--stroke-0, #B3B3B3)"/>
<path id="Vector_63" d="M2957.32 0.5V2494.5" stroke="var(--stroke-0, #B3B3B3)"/>
<path id="Vector_64" d="M2988.89 0.5V2494.5" stroke="var(--stroke-0, #B3B3B3)"/>
<path id="Vector_65" d="M3020.46 0.5V2494.5" stroke="var(--stroke-0, #B3B3B3)"/>
<path id="Vector_66" d="M3052.03 0.5V2494.5" stroke="var(--stroke-0, #B3B3B3)"/>
<path id="Vector_67" d="M3083.6 0.5V2494.5" stroke="var(--stroke-0, #B3B3B3)"/>
<path id="Vector_68" d="M3115.16 0.5V2494.5" stroke="var(--stroke-0, #B3B3B3)"/>
<path id="Vector_69" d="M3146.73 0.5V2494.5" stroke="var(--stroke-0, #B3B3B3)"/>
<path id="Vector_70" d="M3178.3 0.5V2494.5" stroke="var(--stroke-0, #B3B3B3)"/>
<path id="Vector_71" d="M3209.87 0.5V2494.5" stroke="var(--stroke-0, #B3B3B3)"/>
<path id="Vector_72" d="M3241.44 0.5V2494.5" stroke="var(--stroke-0, #B3B3B3)"/>
<path id="Vector_73" d="M3273.01 0.5V2494.5" stroke="var(--stroke-0, #B3B3B3)"/>
<path id="Vector_74" d="M3304.58 0.5V2494.5" stroke="var(--stroke-0, #B3B3B3)"/>
<path id="Vector_75" d="M3336.15 0.5V2494.5" stroke="var(--stroke-0, #B3B3B3)"/>
<path id="Vector_76" d="M3367.72 0.5V2494.5" stroke="var(--stroke-0, #B3B3B3)"/>
<path id="Vector_77" d="M3399.29 0.5V2494.5" stroke="var(--stroke-0, #B3B3B3)"/>
<path id="Vector_78" d="M3430.86 0.5V2494.5" stroke="var(--stroke-0, #B3B3B3)"/>
<path id="Vector_79" d="M3462.43 0.5V2494.5" stroke="var(--stroke-0, #B3B3B3)"/>
<path id="Vector_80" d="M3494 0.5V2494.5" stroke="var(--stroke-0, #B3B3B3)"/>
<path id="Vector_81" d="M1000 0.5H3494" stroke="var(--stroke-0, #B3B3B3)"/>
<path id="Vector_82" d="M1000 32.0696H3494" stroke="var(--stroke-0, #B3B3B3)"/>
<path id="Vector_83" d="M1000 63.6393H3494" stroke="var(--stroke-0, #B3B3B3)"/>
<path id="Vector_84" d="M1000 95.2089H3494" stroke="var(--stroke-0, #B3B3B3)"/>
<path id="Vector_85" d="M1000 126.779H3494" stroke="var(--stroke-0, #B3B3B3)"/>
<path id="Vector_86" d="M1000 158.348H3494" stroke="var(--stroke-0, #B3B3B3)"/>
<path id="Vector_87" d="M1000 189.918H3494" stroke="var(--stroke-0, #B3B3B3)"/>
<path id="Vector_88" d="M1000 221.487H3494" stroke="var(--stroke-0, #B3B3B3)"/>
<path id="Vector_89" d="M1000 253.057H3494" stroke="var(--stroke-0, #B3B3B3)"/>
<path id="Vector_90" d="M1000 284.626H3494" stroke="var(--stroke-0, #B3B3B3)"/>
<path id="Vector_91" d="M1000 316.196H3494" stroke="var(--stroke-0, #B3B3B3)"/>
<path id="Vector_92" d="M1000 347.766H3494" stroke="var(--stroke-0, #B3B3B3)"/>
<path id="Vector_93" d="M1000 379.336H3494" stroke="var(--stroke-0, #B3B3B3)"/>
<path id="Vector_94" d="M1000 410.905H3494" stroke="var(--stroke-0, #B3B3B3)"/>
<path id="Vector_95" d="M1000 442.475H3494" stroke="var(--stroke-0, #B3B3B3)"/>
<path id="Vector_96" d="M1000 474.044H3494" stroke="var(--stroke-0, #B3B3B3)"/>
<path id="Vector_97" d="M1000 505.614H3494" stroke="var(--stroke-0, #B3B3B3)"/>
<path id="Vector_98" d="M1000 537.183H3494" stroke="var(--stroke-0, #B3B3B3)"/>
<path id="Vector_99" d="M1000 568.753H3494" stroke="var(--stroke-0, #B3B3B3)"/>
<path id="Vector_100" d="M1000 600.323H3494" stroke="var(--stroke-0, #B3B3B3)"/>
<path id="Vector_101" d="M1000 631.892H3494" stroke="var(--stroke-0, #B3B3B3)"/>
<path id="Vector_102" d="M1000 663.462H3494" stroke="var(--stroke-0, #B3B3B3)"/>
<path id="Vector_103" d="M1000 695.032H3494" stroke="var(--stroke-0, #B3B3B3)"/>
<path id="Vector_104" d="M1000 726.601H3494" stroke="var(--stroke-0, #B3B3B3)"/>
<path id="Vector_105" d="M1000 758.171H3494" stroke="var(--stroke-0, #B3B3B3)"/>
<path id="Vector_106" d="M1000 789.74H3494" stroke="var(--stroke-0, #B3B3B3)"/>
<path id="Vector_107" d="M1000 821.31H3494" stroke="var(--stroke-0, #B3B3B3)"/>
<path id="Vector_108" d="M1000 852.88H3494" stroke="var(--stroke-0, #B3B3B3)"/>
<path id="Vector_109" d="M1000 884.449H3494" stroke="var(--stroke-0, #B3B3B3)"/>
<path id="Vector_110" d="M1000 916.019H3494" stroke="var(--stroke-0, #B3B3B3)"/>
<path id="Vector_111" d="M1000 947.589H3494" stroke="var(--stroke-0, #B3B3B3)"/>
<path id="Vector_112" d="M1000 979.158H3494" stroke="var(--stroke-0, #B3B3B3)"/>
<path id="Vector_113" d="M1000 1010.73H3494" stroke="var(--stroke-0, #B3B3B3)"/>
<path id="Vector_114" d="M1000 1042.3H3494" stroke="var(--stroke-0, #B3B3B3)"/>
<path id="Vector_115" d="M1000 1073.87H3494" stroke="var(--stroke-0, #B3B3B3)"/>
<path id="Vector_116" d="M1000 1105.44H3494" stroke="var(--stroke-0, #B3B3B3)"/>
<path id="Vector_117" d="M1000 1137.01H3494" stroke="var(--stroke-0, #B3B3B3)"/>
<path id="Vector_118" d="M1000 1168.58H3494" stroke="var(--stroke-0, #B3B3B3)"/>
<path id="Vector_119" d="M1000 1200.15H3494" stroke="var(--stroke-0, #B3B3B3)"/>
<path id="Vector_120" d="M1000 1231.72H3494" stroke="var(--stroke-0, #B3B3B3)"/>
<path id="Vector_121" d="M1000 1263.28H3494" stroke="var(--stroke-0, #B3B3B3)"/>
<path id="Vector_122" d="M1000 1294.85H3494" stroke="var(--stroke-0, #B3B3B3)"/>
<path id="Vector_123" d="M1000 1326.42H3494" stroke="var(--stroke-0, #B3B3B3)"/>
<path id="Vector_124" d="M1000 1357.99H3494" stroke="var(--stroke-0, #B3B3B3)"/>
<path id="Vector_125" d="M1000 1389.56H3494" stroke="var(--stroke-0, #B3B3B3)"/>
<path id="Vector_126" d="M1000 1421.13H3494" stroke="var(--stroke-0, #B3B3B3)"/>
<path id="Vector_127" d="M1000 1452.7H3494" stroke="var(--stroke-0, #B3B3B3)"/>
<path id="Vector_128" d="M1000 1484.27H3494" stroke="var(--stroke-0, #B3B3B3)"/>
<path id="Vector_129" d="M1000 1515.84H3494" stroke="var(--stroke-0, #B3B3B3)"/>
<path id="Vector_130" d="M1000 1547.41H3494" stroke="var(--stroke-0, #B3B3B3)"/>
<path id="Vector_131" d="M1000 1578.98H3494" stroke="var(--stroke-0, #B3B3B3)"/>
<path id="Vector_132" d="M1000 1610.55H3494" stroke="var(--stroke-0, #B3B3B3)"/>
<path id="Vector_133" d="M1000 1642.12H3494" stroke="var(--stroke-0, #B3B3B3)"/>
<path id="Vector_134" d="M1000 1673.69H3494" stroke="var(--stroke-0, #B3B3B3)"/>
<path id="Vector_135" d="M1000 1705.26H3494" stroke="var(--stroke-0, #B3B3B3)"/>
<path id="Vector_136" d="M1000 1736.83H3494" stroke="var(--stroke-0, #B3B3B3)"/>
<path id="Vector_137" d="M1000 1768.4H3494" stroke="var(--stroke-0, #B3B3B3)"/>
<path id="Vector_138" d="M1000 1799.97H3494" stroke="var(--stroke-0, #B3B3B3)"/>
<path id="Vector_139" d="M1000 1831.54H3494" stroke="var(--stroke-0, #B3B3B3)"/>
<path id="Vector_140" d="M1000 1863.11H3494" stroke="var(--stroke-0, #B3B3B3)"/>
<path id="Vector_141" d="M1000 1894.68H3494" stroke="var(--stroke-0, #B3B3B3)"/>
<path id="Vector_142" d="M1000 1926.25H3494" stroke="var(--stroke-0, #B3B3B3)"/>
<path id="Vector_143" d="M1000 1957.82H3494" stroke="var(--stroke-0, #B3B3B3)"/>
<path id="Vector_144" d="M1000 1989.39H3494" stroke="var(--stroke-0, #B3B3B3)"/>
<path id="Vector_145" d="M1000 2020.96H3494" stroke="var(--stroke-0, #B3B3B3)"/>
<path id="Vector_146" d="M1000 2052.53H3494" stroke="var(--stroke-0, #B3B3B3)"/>
<path id="Vector_147" d="M1000 2084.09H3494" stroke="var(--stroke-0, #B3B3B3)"/>
<path id="Vector_148" d="M1000 2115.66H3494" stroke="var(--stroke-0, #B3B3B3)"/>
<path id="Vector_149" d="M1000 2147.23H3494" stroke="var(--stroke-0, #B3B3B3)"/>
<path id="Vector_150" d="M1000 2178.8H3494" stroke="var(--stroke-0, #B3B3B3)"/>
<path id="Vector_151" d="M1000 2210.37H3494" stroke="var(--stroke-0, #B3B3B3)"/>
<path id="Vector_152" d="M1000 2241.94H3494" stroke="var(--stroke-0, #B3B3B3)"/>
<path id="Vector_153" d="M1000 2273.51H3494" stroke="var(--stroke-0, #B3B3B3)"/>
<path id="Vector_154" d="M1000 2305.08H3494" stroke="var(--stroke-0, #B3B3B3)"/>
<path id="Vector_155" d="M1000 2336.65H3494" stroke="var(--stroke-0, #B3B3B3)"/>
<path id="Vector_156" d="M1000 2368.22H3494" stroke="var(--stroke-0, #B3B3B3)"/>
<path id="Vector_157" d="M1000 2399.79H3494" stroke="var(--stroke-0, #B3B3B3)"/>
<path id="Vector_158" d="M1000 2431.36H3494" stroke="var(--stroke-0, #B3B3B3)"/>
<path id="Vector_159" d="M1000 2462.93H3494" stroke="var(--stroke-0, #B3B3B3)"/>
<path id="Vector_160" d="M1000 2494.5H3494" stroke="var(--stroke-0, #B3B3B3)"/>
</g>
<rect id="Rectangle" x="974" y="1300.67" width="2382.82" height="1322.93" rx="255" transform="rotate(-19.3921 974 1300.67)" fill="url(#paint0_linear_0_8)"/>
<g id="Ellipse 2" filter="url(#filter0_f_0_8)">
<circle cx="1400" cy="1568.5" r="400" fill="var(--fill-0, #310CE9)"/>
</g>
</g>
<defs>
<filter id="filter0_f_0_8" x="0" y="168.5" width="2800" height="2800" filterUnits="userSpaceOnUse" color-interpolation-filters="sRGB">
<feFlood flood-opacity="0" result="BackgroundImageFix"/>
<feBlend mode="normal" in="SourceGraphic" in2="BackgroundImageFix" result="shape"/>
<feGaussianBlur stdDeviation="500" result="effect1_foregroundBlur_0_8"/>
</filter>
<linearGradient id="paint0_linear_0_8" x1="3287.83" y1="1276.39" x2="2071.28" y2="3246.55" gradientUnits="userSpaceOnUse">
<stop stop-color="white" stop-opacity="0"/>
<stop offset="0.288462" stop-color="#FFA32A" stop-opacity="0"/>
<stop offset="0.423077" stop-color="#FF9100" stop-opacity="0"/>
<stop offset="1" stop-color="#FF6F00"/>
</linearGradient>
</defs>
</svg>
