<?xml version="1.0" standalone="no"?>
<!DOCTYPE svg PUBLIC "-//W3C//DTD SVG 20010904//EN"
 "http://www.w3.org/TR/2001/REC-SVG-20010904/DTD/svg10.dtd">
<svg version="1.0" xmlns="http://www.w3.org/2000/svg"
 width="34.000000pt" height="27.000000pt" viewBox="0 0 34.000000 27.000000"
 preserveAspectRatio="xMidYMid meet">

<g transform="translate(0.000000,27.000000) scale(0.100000,-0.100000)"
fill="#000000" stroke="none">
<path d="M116 214 c-8 -20 -8 -138 0 -158 3 -9 12 -16 20 -16 11 0 14 20 14
95 0 75 -3 95 -14 95 -8 0 -17 -7 -20 -16z"/>
<path d="M185 188 c-9 -24 -1 -113 10 -111 14 4 19 103 6 116 -7 7 -12 5 -16
-5z"/>
<path d="M54 156 c-9 -24 0 -51 19 -54 14 -3 17 4 17 32 0 26 -4 36 -15 36 -9
0 -18 -6 -21 -14z"/>
<path d="M240 135 c0 -29 3 -36 18 -33 11 2 17 13 17 33 0 20 -6 31 -17 33
-15 3 -18 -4 -18 -33z"/>
</g>
</svg>
