<?xml version="1.0" standalone="no"?>
<!DOCTYPE svg PUBLIC "-//W3C//DTD SVG 20010904//EN"
 "http://www.w3.org/TR/2001/REC-SVG-20010904/DTD/svg10.dtd">
<svg version="1.0" xmlns="http://www.w3.org/2000/svg"
 width="512.000000pt" height="512.000000pt" viewBox="0 0 512.000000 512.000000"
 preserveAspectRatio="xMidYMid meet">

<g transform="translate(0.000000,512.000000) scale(0.100000,-0.100000)"
fill="#000000" stroke="none">
<path d="M4223 3295 c-20 -8 -41 -31 -58 -62 -237 -422 -617 -752 -1032 -896
-483 -169 -1028 -113 -1466 149 -250 150 -529 434 -670 680 -23 40 -46 74 -50
74 -12 0 -187 -82 -187 -88 0 -10 63 -118 111 -189 l48 -71 -147 -65 c-81 -35
-207 -91 -281 -123 -140 -60 -171 -87 -171 -142 0 -61 69 -120 124 -106 13 3
156 63 317 134 l294 128 105 -102 c112 -109 222 -200 308 -255 28 -18 52 -36
52 -40 0 -3 -117 -123 -260 -266 -144 -143 -270 -275 -282 -293 -50 -81 31
-186 121 -157 11 3 155 142 319 307 l299 301 118 -47 c152 -61 317 -103 483
-123 l132 -17 0 -323 c0 -357 3 -379 59 -407 38 -20 64 -20 102 0 56 28 59 50
59 407 l0 323 133 17 c190 23 430 90 588 165 3 1 104 -118 224 -265 120 -147
232 -283 249 -300 74 -80 186 -36 186 72 0 30 -29 70 -223 307 -123 150 -226
278 -230 285 -5 8 19 30 68 63 105 71 235 182 334 285 l84 88 286 -141 c157
-78 296 -144 308 -147 52 -14 123 46 123 105 0 61 -20 75 -303 216 -150 75
-273 137 -275 139 -2 1 21 40 51 86 30 46 64 103 76 126 39 77 22 141 -45 169
-40 17 -41 17 -81 -1z"/>
</g>
</svg>
