<?xml version="1.0" standalone="no"?>
<!DOCTYPE svg PUBLIC "-//W3C//DTD SVG 20010904//EN"
 "http://www.w3.org/TR/2001/REC-SVG-20010904/DTD/svg10.dtd">
<svg version="1.0" xmlns="http://www.w3.org/2000/svg"
 width="512.000000pt" height="512.000000pt" viewBox="0 0 512.000000 512.000000"
 preserveAspectRatio="xMidYMid meet">

<g transform="translate(0.000000,512.000000) scale(0.100000,-0.100000)"
fill="#000000" stroke="none">
<path d="M2338 4675 c-178 -45 -333 -149 -433 -290 -96 -136 -134 -248 -142
-422 l-6 -123 233 0 232 0 34 -34 c46 -46 48 -104 5 -147 l-29 -29 -236 0
-236 0 0 -110 0 -110 236 0 236 0 29 -29 c43 -43 41 -101 -5 -147 l-34 -34
-231 0 -231 0 0 -105 0 -105 215 0 c232 0 267 -6 299 -51 21 -30 21 -88 0
-118 -32 -45 -67 -51 -299 -51 l-215 0 0 -85 c0 -135 43 -303 99 -388 l19 -29
687 798 687 798 -4 116 c-9 203 -71 343 -218 490 -96 96 -179 149 -295 187
-66 21 -102 27 -210 29 -90 2 -148 -1 -187 -11z"/>
<path d="M4141 4663 c-16 -16 -575 -662 -1242 -1438 -667 -775 -1252 -1455
-1300 -1510 -414 -475 -790 -920 -795 -940 -22 -88 73 -164 150 -121 17 10
197 211 399 447 l369 429 41 -29 c152 -104 458 -211 603 -211 l34 0 0 -325 0
-325 -386 0 c-342 0 -389 -2 -414 -17 -58 -34 -68 -116 -21 -164 l29 -29 895
0 c881 0 895 0 920 20 38 30 52 80 33 123 -27 67 -30 67 -461 67 l-385 0 0
320 c0 248 3 321 13 324 6 2 59 11 116 20 132 21 288 73 412 137 312 164 569
468 674 799 56 180 57 189 62 603 5 433 6 424 -64 453 -28 12 -42 13 -69 4
-68 -23 -68 -23 -75 -430 -6 -389 -10 -424 -64 -586 -58 -172 -143 -304 -290
-449 -205 -202 -421 -304 -709 -335 -236 -26 -517 39 -714 164 l-43 27 127
147 c70 81 133 153 140 161 10 11 24 9 86 -17 259 -108 541 -69 760 103 111
87 205 226 254 375 16 48 18 102 22 451 l3 395 530 615 c408 474 530 622 535
648 19 97 -103 162 -175 94z"/>
<path d="M1183 3295 c-64 -28 -65 -36 -60 -449 5 -407 7 -427 73 -626 19 -57
55 -143 80 -190 48 -91 152 -241 170 -247 7 -2 41 30 77 72 l66 77 -46 66
c-66 96 -138 252 -167 362 -37 137 -46 248 -46 580 0 328 0 329 -66 356 -40
17 -41 17 -81 -1z"/>
</g>
</svg>
