<?xml version="1.0" standalone="no"?>
<!DOCTYPE svg PUBLIC "-//W3C//DTD SVG 20010904//EN"
 "http://www.w3.org/TR/2001/REC-SVG-20010904/DTD/svg10.dtd">
<svg version="1.0" xmlns="http://www.w3.org/2000/svg"
 width="512.000000pt" height="512.000000pt" viewBox="0 0 512.000000 512.000000"
 preserveAspectRatio="xMidYMid meet">

<g transform="translate(0.000000,512.000000) scale(0.100000,-0.100000)"
fill="#000000" stroke="none">
<path d="M2394 5105 c-375 -68 -675 -317 -804 -668 -58 -158 -55 -109 -55
-1017 0 -825 0 -836 22 -916 98 -368 362 -640 728 -750 83 -25 104 -28 270
-28 158 -1 190 2 265 22 96 26 242 92 324 147 171 113 323 310 392 506 59 168
57 141 62 954 2 536 0 777 -8 845 -58 467 -405 830 -865 905 -108 18 -234 18
-331 0z m311 -360 c194 -40 371 -178 459 -355 79 -160 77 -139 74 -1004 l-3
-761 -23 -70 c-38 -113 -88 -193 -176 -281 -67 -68 -97 -89 -176 -127 -114
-54 -185 -71 -305 -70 -310 1 -573 211 -652 518 -17 64 -18 133 -18 825 0 849
-3 806 77 970 87 179 290 330 488 363 58 10 190 6 255 -8z"/>
<path d="M944 2911 c-23 -10 -54 -36 -70 -56 -24 -32 -29 -49 -32 -111 -2 -41
1 -120 7 -176 90 -790 697 -1414 1484 -1523 l47 -6 0 -340 0 -339 -312 0
c-282 0 -317 -2 -353 -19 -141 -64 -148 -254 -12 -320 43 -21 53 -21 857 -21
793 0 815 1 855 20 137 66 131 257 -10 321 -36 17 -71 19 -352 19 l-313 0 0
339 0 340 48 6 c495 69 940 350 1211 765 173 265 280 610 281 905 0 94 -16
133 -73 179 -34 27 -46 31 -102 31 -56 0 -68 -4 -102 -31 -62 -51 -71 -75 -83
-224 -17 -223 -73 -413 -171 -585 -249 -435 -692 -694 -1184 -695 -217 0 -403
43 -600 139 -266 130 -480 338 -613 598 -92 179 -137 348 -151 561 -7 107 -12
127 -34 161 -30 44 -96 81 -148 81 -19 0 -53 -9 -75 -19z"/>
</g>
</svg>
